<?xml version="1.0" encoding="UTF-8" standalone="no"?>
<!-- Created with Inkscape (http://www.inkscape.org/) -->

<svg
   xmlns:dc="http://purl.org/dc/elements/1.1/"
   xmlns:cc="http://creativecommons.org/ns#"
   xmlns:rdf="http://www.w3.org/1999/02/22-rdf-syntax-ns#"
   xmlns:svg="http://www.w3.org/2000/svg"
   xmlns="http://www.w3.org/2000/svg"
   xmlns:sodipodi="http://sodipodi.sourceforge.net/DTD/sodipodi-0.dtd"
   xmlns:inkscape="http://www.inkscape.org/namespaces/inkscape"
   width="210mm"
   height="297mm"
   id="svg2"
   version="1.1"
   inkscape:version="0.48.2 r9819"
   sodipodi:docname="images.svg">
  <defs
     id="defs4">
    <filter
       inkscape:collect="always"
       id="filter3840">
      <feGaussianBlur
         inkscape:collect="always"
         stdDeviation="1.3773432"
         id="feGaussianBlur3842" />
    </filter>
    <filter
       inkscape:collect="always"
       id="filter3899">
      <feGaussianBlur
         inkscape:collect="always"
         stdDeviation="1.4526562"
         id="feGaussianBlur3901" />
    </filter>
    <filter
       inkscape:collect="always"
       id="filter3801">
      <feGaussianBlur
         inkscape:collect="always"
         stdDeviation="1.227988"
         id="feGaussianBlur3803" />
    </filter>
  </defs>
  <sodipodi:namedview
     id="base"
     pagecolor="#ffffff"
     bordercolor="#666666"
     borderopacity="1.0"
     inkscape:pageopacity="0.0"
     inkscape:pageshadow="2"
     inkscape:zoom="3.5513629"
     inkscape:cx="332.34686"
     inkscape:cy="834.4822"
     inkscape:document-units="px"
     inkscape:current-layer="layer1"
     showgrid="false"
     inkscape:window-width="1366"
     inkscape:window-height="716"
     inkscape:window-x="0"
     inkscape:window-y="23"
     inkscape:window-maximized="1" />
  <metadata
     id="metadata7">
    <rdf:RDF>
      <cc:Work
         rdf:about="">
        <dc:format>image/svg+xml</dc:format>
        <dc:type
           rdf:resource="http://purl.org/dc/dcmitype/StillImage" />
        <dc:title></dc:title>
      </cc:Work>
    </rdf:RDF>
  </metadata>
  <g
     inkscape:label="Capa 1"
     inkscape:groupmode="layer"
     id="layer1">
    <rect
       style="fill:#000000;fill-opacity:1;stroke:none"
       id="rect3844"
       width="73.022476"
       height="73.022476"
       x="34.192818"
       y="189.05177"
       rx="23.717747"
       ry="23.717747"
       transform="matrix(0.99568874,-0.09275742,0.09275742,0.99568874,0,0)"
       inkscape:export-filename="/home/danigm/Projects/lh/qml/lh/images/quit.png"
       inkscape:export-xdpi="57.380001"
       inkscape:export-ydpi="57.380001" />
    <g
       id="g3778"
       transform="translate(-2,-20)">
      <rect
         transform="matrix(0.70710678,0.70710678,-0.70710678,0.70710678,0,0)"
         y="96.483238"
         x="199.04004"
         height="8.8014288"
         width="70.411438"
         id="rect3006"
         style="fill:#ffffff;fill-opacity:1;stroke:none" />
      <rect
         style="fill:#ffffff;fill-opacity:1;stroke:none"
         id="rect3776"
         width="70.411438"
         height="8.8014288"
         x="65.67823"
         y="229.84505"
         transform="matrix(-0.70710678,0.70710678,0.70710678,0.70710678,0,0)" />
    </g>
    <g
       transform="translate(-2,-20)"
       id="g3782"
       style="filter:url(#filter3840)">
      <rect
         style="fill:#ffffff;fill-opacity:1;stroke:none"
         id="rect3784"
         width="70.411438"
         height="8.8014288"
         x="199.04004"
         y="96.483238"
         transform="matrix(0.70710678,0.70710678,-0.70710678,0.70710678,0,0)" />
      <rect
         transform="matrix(-0.70710678,0.70710678,0.70710678,0.70710678,0,0)"
         y="229.84505"
         x="65.67823"
         height="8.8014288"
         width="70.411438"
         id="rect3786"
         style="fill:#ffffff;fill-opacity:1;stroke:none" />
    </g>
    <rect
       inkscape:export-ydpi="57.380001"
       inkscape:export-xdpi="57.380001"
       inkscape:export-filename="/home/danigm/Projects/lh/qml/lh/images/back.png"
       transform="matrix(0.99568874,-0.09275742,0.09275742,0.99568874,0,0)"
       ry="23.717747"
       rx="23.717747"
       y="196.47237"
       x="113.84793"
       height="73.022476"
       width="73.022476"
       id="rect3854"
       style="fill:#000000;fill-opacity:1;stroke:none" />
    <path
       id="path3873"
       d="M 181.375 186.5625 L 151.875 216.0625 L 151.96875 216.125 L 160.0625 224.25 L 181.46875 245.625 L 189.65625 237.4375 L 168.25 216.0625 L 189.5625 194.75 L 181.375 186.5625 z "
       style="fill:#ffffff;fill-opacity:1;stroke:none;filter:url(#filter3899)"
       inkscape:export-filename="/home/danigm/Projects/lh/qml/lh/images/back.png"
       inkscape:export-xdpi="57"
       inkscape:export-ydpi="57" />
    <path
       style="fill:#ffffff;fill-opacity:1;stroke:none"
       d="M 181.375 186.5625 L 151.875 216.0625 L 151.96875 216.125 L 160.0625 224.25 L 181.46875 245.625 L 189.65625 237.4375 L 168.25 216.0625 L 189.5625 194.75 L 181.375 186.5625 z "
       id="rect3868"
       inkscape:export-filename="/home/danigm/Projects/lh/qml/lh/images/back.png"
       inkscape:export-xdpi="57"
       inkscape:export-ydpi="57" />
    <rect
       style="fill:#000000;fill-opacity:1;stroke:none"
       id="rect3924"
       width="73.022476"
       height="73.022476"
       x="193.50304"
       y="203.89297"
       rx="23.717747"
       ry="23.717747"
       transform="matrix(0.99568874,-0.09275742,0.09275742,0.99568874,0,0)"
       inkscape:export-filename="/home/danigm/Projects/lh/qml/lh/images/next.png"
       inkscape:export-xdpi="57.380001"
       inkscape:export-ydpi="57.380001" />
    <path
       inkscape:export-ydpi="57"
       inkscape:export-xdpi="57"
       inkscape:export-filename="/home/danigm/Projects/lh/qml/lh/images/next.png"
       style="fill:#ffffff;fill-opacity:1;stroke:none;filter:url(#filter3899)"
       d="m 261.375,186.5625 -29.5,29.5 0.0937,0.0625 8.09375,8.125 21.40625,21.375 8.1875,-8.1875 -21.40625,-21.375 21.3125,-21.3125 -8.1875,-8.1875 z"
       id="path3926"
       inkscape:connector-curvature="0"
       transform="matrix(-1,0,0,1,502.64376,0)" />
    <path
       inkscape:export-ydpi="57"
       inkscape:export-xdpi="57"
       inkscape:export-filename="/home/danigm/Projects/lh/qml/lh/images/next.png"
       id="path3928"
       d="m 241.26876,186.5625 29.5,29.5 -0.0937,0.0625 -8.09375,8.125 -21.40625,21.375 -8.1875,-8.1875 21.40625,-21.375 -21.3125,-21.3125 8.1875,-8.1875 z"
       style="fill:#ffffff;fill-opacity:1;stroke:none"
       inkscape:connector-curvature="0" />
    <rect
       inkscape:export-ydpi="57.380001"
       inkscape:export-xdpi="57.380001"
       inkscape:export-filename="/home/danigm/Projects/lh/qml/lh/images/about.png"
       transform="matrix(0.99568874,-0.09275742,0.09275742,0.99568874,0,0)"
       ry="23.717747"
       rx="23.717747"
       y="211.31357"
       x="273.15814"
       height="73.022476"
       width="73.022476"
       id="rect2999"
       style="fill:#000000;fill-opacity:1;stroke:none" />
    <path
       transform="matrix(0.75002169,0.84916662,-0.84916662,0.75002169,270.818,-195.41282)"
       d="m 328.90526,215.75365 c -1.85584,2.42291 -14.80777,-2.4693 -17.8333,-2.06833 -3.02553,0.40097 -14.25598,8.49808 -16.67889,6.64224 -2.4229,-1.85584 2.46931,-14.80777 2.06834,-17.8333 -0.40098,-3.02553 -8.49808,-14.25598 -6.64224,-16.67888 1.85584,-2.42291 14.80777,2.4693 17.8333,2.06833 3.02553,-0.40097 14.25598,-8.49808 16.67888,-6.64224 2.4229,1.85584 -2.4693,14.80777 -2.06833,17.8333 0.40097,3.02553 8.49808,14.25598 6.64224,16.67888 z"
       inkscape:randomized="0"
       inkscape:rounded="0.17"
       inkscape:flatsided="false"
       sodipodi:arg2="1.4390341"
       sodipodi:arg1="0.6536359"
       sodipodi:r2="13.013609"
       sodipodi:r1="24.617182"
       sodipodi:cy="200.78452"
       sodipodi:cx="309.36221"
       sodipodi:sides="4"
       id="path3011"
       style="fill:#ffffff;fill-opacity:1;stroke:none;filter:url(#filter3801)"
       sodipodi:type="star"
       inkscape:export-filename="/home/danigm/Projects/lh/qml/lh/images/about.png"
       inkscape:export-xdpi="57"
       inkscape:export-ydpi="57" />
    <path
       sodipodi:type="star"
       style="fill:#ffffff;fill-opacity:1;stroke:none"
       id="path3009"
       sodipodi:sides="4"
       sodipodi:cx="309.36221"
       sodipodi:cy="200.78452"
       sodipodi:r1="24.617182"
       sodipodi:r2="13.013609"
       sodipodi:arg1="0.6536359"
       sodipodi:arg2="1.4390341"
       inkscape:flatsided="false"
       inkscape:rounded="0.17"
       inkscape:randomized="0"
       d="m 328.90526,215.75365 c -1.85584,2.42291 -14.80777,-2.4693 -17.8333,-2.06833 -3.02553,0.40097 -14.25598,8.49808 -16.67889,6.64224 -2.4229,-1.85584 2.46931,-14.80777 2.06834,-17.8333 -0.40098,-3.02553 -8.49808,-14.25598 -6.64224,-16.67888 1.85584,-2.42291 14.80777,2.4693 17.8333,2.06833 3.02553,-0.40097 14.25598,-8.49808 16.67888,-6.64224 2.4229,1.85584 -2.4693,14.80777 -2.06833,17.8333 0.40097,3.02553 8.49808,14.25598 6.64224,16.67888 z"
       transform="matrix(0.75002169,0.84916662,-0.84916662,0.75002169,270.818,-195.41282)"
       inkscape:export-filename="/home/danigm/Projects/lh/qml/lh/images/about.png"
       inkscape:export-xdpi="57"
       inkscape:export-ydpi="57" />
  </g>
</svg>
