<?xml version="1.0" encoding="UTF-8" standalone="no"?>
<!-- Created with Inkscape (http://www.inkscape.org/) -->

<svg
   xmlns:dc="http://purl.org/dc/elements/1.1/"
   xmlns:cc="http://creativecommons.org/ns#"
   xmlns:rdf="http://www.w3.org/1999/02/22-rdf-syntax-ns#"
   xmlns:svg="http://www.w3.org/2000/svg"
   xmlns="http://www.w3.org/2000/svg"
   xmlns:sodipodi="http://sodipodi.sourceforge.net/DTD/sodipodi-0.dtd"
   xmlns:inkscape="http://www.inkscape.org/namespaces/inkscape"
   width="637.03198"
   height="227.47714"
   id="svg3223"
   version="1.1"
   inkscape:version="0.48.2 r9819"
   sodipodi:docname="wadobo.svg"
   inkscape:export-filename="/home/danigm/Projects/lh/qml/lh/images/wadobo.png"
   inkscape:export-xdpi="58.900002"
   inkscape:export-ydpi="58.900002">
  <defs
     id="defs3225" />
  <sodipodi:namedview
     inkscape:document-units="mm"
     pagecolor="#ffffff"
     bordercolor="#666666"
     borderopacity="1.0"
     inkscape:pageopacity="0.0"
     inkscape:pageshadow="2"
     inkscape:zoom="1.1437646"
     inkscape:cx="300.58157"
     inkscape:cy="51.824408"
     inkscape:current-layer="layer1"
     id="namedview3227"
     showgrid="false"
     units="mm"
     fit-margin-top="0"
     fit-margin-left="0"
     fit-margin-right="0"
     fit-margin-bottom="0"
     inkscape:window-width="1022"
     inkscape:window-height="579"
     inkscape:window-x="0"
     inkscape:window-y="23"
     inkscape:window-maximized="0" />
  <metadata
     id="metadata3229">
    <rdf:RDF>
      <cc:Work
         rdf:about="">
        <dc:format>image/svg+xml</dc:format>
        <dc:type
           rdf:resource="http://purl.org/dc/dcmitype/StillImage" />
        <dc:title></dc:title>
      </cc:Work>
    </rdf:RDF>
  </metadata>
  <g
     inkscape:label="Layer 1"
     inkscape:groupmode="layer"
     id="layer1"
     transform="translate(-17.766802,-13.069598)">
    <path
       style="font-size:177.3453064px;font-style:normal;font-variant:normal;font-weight:300;font-stretch:normal;text-align:center;line-height:100%;letter-spacing:0px;word-spacing:0px;writing-mode:lr-tb;text-anchor:middle;fill:#4e9a06;fill-opacity:1;stroke:none;font-family:'Arista 2.0 Light';-inkscape-font-specification:'Arista 2.0 Light, Light'"
       d="m 447.31506,17.706714 c -17.40674,-0.528491 -32.52239,13.79864 -36.16109,30.254131 -12.74041,-3.472041 -26.41681,-2.924647 -39.21949,0.09019 -3.1012,-17.695163 -20.46764,-33.479101 -39.15953,-29.804414 -14.54858,2.000841 -27.93588,12.882511 -31.33356,27.345699 -15.08763,-0.441081 -29.97645,4.536604 -42.24796,13.163069 C 236.93327,39.381587 202.13227,36.672444 176.64655,50.599657 164.02973,42.518571 146.57703,44.150485 134.5786,52.758528 121.88905,42.653572 102.22346,42.938351 89.572089,52.93853 72.408969,38.437729 41.616368,45.311382 34.071162,67.151001 c -6.737789,17.001157 -0.968806,35.631829 -3.342796,53.312029 -0.473705,21.35958 5.54043,45.23026 24.301787,57.60002 16.659768,12.01522 39.347967,13.60923 58.379517,7.34611 20.22037,7.7136 44.44789,2.89413 60.59826,-11.18411 18.51141,12.05735 42.24921,13.00936 63.44682,9.59499 9.87554,3.4801 20.8334,0.66733 29.92445,-2.93847 24.82078,13.05676 57.46857,10.1207 79.1586,-7.58608 25.32625,20.63219 65.66624,21.31478 90.58259,-0.14987 24.91845,20.15013 63.91611,21.40391 89.26327,1.43925 31.69357,25.09922 84.9392,16.25265 105.06227,-19.22509 C 650.09551,125.4433 643.42786,81.421427 614.3281,60.494866 589.49283,41.100336 550.81152,40.052468 526.38366,60.554355 514.07358,50.083639 497.52454,46.029855 481.70712,45.262448 477.51114,30.231908 463.64264,16.953028 447.31506,17.70681 z"
       id="path3177"
       inkscape:connector-curvature="0"
       inkscape:export-filename="/tmp/path3177.png"
       inkscape:export-xdpi="30.35"
       inkscape:export-ydpi="30.35" />
    <path
       d="m 106.97201,81.17685 c -9e-5,-1.474652 0.51036,-2.72248 1.53146,-3.743578 1.02091,-1.020906 2.26873,-1.531359 3.74358,-1.531455 1.47465,9.6e-5 2.72248,0.510549 3.74358,1.531455 1.0209,1.021098 1.53135,2.268926 1.53145,3.743578 l 0,49.34709 c -1e-4,2.38234 0.45365,4.65117 1.36124,6.80649 0.90749,2.042 2.09862,3.85709 3.57346,5.44525 1.58807,1.58816 3.40315,2.83608 5.44515,3.74358 2.15532,0.90749 4.42415,1.36133 6.80659,1.36133 2.38214,0 4.59427,-0.45384 6.63627,-1.36133 2.15532,-0.9075 4.02711,-2.15542 5.61537,-3.74358 1.58806,-1.58816 2.83599,-3.40325 3.74358,-5.44525 0.90749,-2.15532 1.36124,-4.42415 1.36133,-6.80649 l 0,-49.34709 c -9e-5,-1.474652 0.51036,-2.722576 1.53146,-3.743578 1.0209,-1.020906 2.26873,-1.531359 3.74358,-1.531455 1.47465,9.6e-5 2.72248,0.510549 3.74357,1.531455 1.02081,1.021002 1.53136,2.268926 1.53146,3.743578 l 0,49.34709 c -1e-4,3.85709 -0.73747,7.48716 -2.21212,10.8904 -1.47485,3.40325 -3.46005,6.35274 -5.95571,8.84849 -2.49575,2.49575 -5.44524,4.48096 -8.84839,5.95571 -3.40334,1.47474 -7.03351,2.21212 -10.8904,2.21212 -4.76468,0 -9.07542,-1.021 -12.93241,-3.06301 -3.85708,-2.15532 -7.09011,-4.9914 -9.69928,-8.50806 -2.49575,3.51666 -5.67207,6.35274 -9.52906,8.50806 -3.857089,2.04201 -8.167827,3.06301 -12.932407,3.06301 -3.856991,0 -7.487157,-0.73738 -10.890401,-2.21212 -3.403244,-1.47475 -6.352742,-3.45996 -8.848397,-5.95571 -2.495751,-2.49575 -4.480953,-5.44524 -5.955701,-8.84849 -1.361336,-3.40324 -2.041909,-7.03331 -2.041909,-10.8904 l 0,-49.34709 c 0,-1.474652 0.510453,-2.722576 1.531456,-3.743578 1.020906,-1.020906 2.268829,-1.531359 3.743578,-1.531455 1.474653,9.6e-5 2.722576,0.510549 3.743578,1.531455 1.020906,1.021002 1.531455,2.268926 1.531455,3.743578 l 0,49.34709 c 0,2.38234 0.453747,4.65117 1.36124,6.80649 0.90759,2.042 2.098711,3.85709 3.57346,5.44525 1.588161,1.58816 3.403244,2.83608 5.445152,3.74358 2.155417,0.90749 4.424246,1.36133 6.806489,1.36133 4.651071,0 8.621571,-1.64496 11.911407,-4.93479 3.40324,-3.28974 5.21832,-7.43036 5.44524,-12.42186 l 0,-49.34709"
       style="font-size:177.3453064px;font-style:normal;font-variant:normal;font-weight:300;font-stretch:normal;text-align:center;line-height:100%;letter-spacing:0px;word-spacing:0px;writing-mode:lr-tb;text-anchor:middle;fill:#ffffff;fill-opacity:1;stroke:none;font-family:'Arista 2.0 Light';-inkscape-font-specification:'Arista 2.0 Light, Light'"
       id="path3153"
       inkscape:connector-curvature="0" />
    <path
       d="m 300.70996,76.071936 c 6.35274,0.227017 12.13823,1.871885 17.35656,4.934795 5.21833,2.949498 9.69928,6.466155 13.44286,10.550067 l 0,-37.605998 c -1e-4,-1.474557 0.51045,-2.72248 1.53145,-3.743578 1.02091,-1.02081 2.26873,-1.531359 3.74358,-1.531455 1.47465,9.6e-5 2.72258,0.510645 3.74358,1.531455 1.0209,1.021098 1.53136,2.269021 1.53145,3.743578 l 0,63.47062 c -9e-5,5.89909 -1.0778,11.34424 -3.23303,16.33565 -2.15551,4.9914 -5.10501,9.30223 -8.84849,12.9323 -3.74367,3.63017 -8.11112,6.46626 -13.10252,8.50816 -4.9915,2.04201 -10.26654,3.06291 -15.8251,3.06291 -5.78559,0 -11.17403,-1.0777 -16.16544,-3.23303 -4.9915,-2.15541 -9.35894,-5.10491 -13.10252,-8.84849 -3.63017,-3.74358 -6.52286,-8.05431 -8.67828,-12.93231 -2.15542,-4.9914 -3.23312,-10.26644 -3.23312,-15.82519 0,-5.67198 1.0777,-11.00372 3.23312,-15.99522 2.26883,-4.991409 5.27503,-9.358853 9.01861,-13.102527 3.74358,-3.743482 8.05432,-6.69298 12.93241,-8.848493 4.99131,-2.268733 10.20963,-3.403148 15.65488,-3.403244 m 30.79942,41.349484 c -0.22693,-4.42415 -1.19122,-8.50807 -2.8927,-12.25164 -1.58826,-3.74358 -3.74367,-6.976612 -6.46625,-9.699284 -2.72267,-2.722577 -5.89899,-4.821191 -9.52906,-6.296036 -3.63017,-1.588065 -7.48726,-2.382146 -11.57107,-2.382242 -4.19742,9.6e-5 -8.16783,0.794177 -11.91141,2.382242 -3.74357,1.588257 -7.03341,3.800381 -9.8694,6.63637 -2.72257,2.722672 -4.87799,5.9557 -6.46615,9.69928 -1.58826,3.74358 -2.38234,7.71408 -2.38234,11.91131 0,4.19742 0.79408,8.16792 2.38234,11.9114 1.58816,3.63016 3.74358,6.86329 6.46615,9.69928 2.83599,2.72258 6.12583,4.87799 9.8694,6.46615 3.74358,1.58816 7.71399,2.38234 11.91141,2.38234 4.19732,0 8.11102,-0.79408 11.74118,-2.38234 3.74358,-1.58816 6.97661,-3.74357 9.69928,-6.46615 2.83599,-2.83599 5.04812,-6.06912 6.63637,-9.69928 1.58807,-3.74348 2.38215,-7.71398 2.38225,-11.9114"
       style="font-size:177.3453064px;font-style:normal;font-variant:normal;font-weight:300;font-stretch:normal;text-align:center;line-height:100%;letter-spacing:0px;word-spacing:0px;writing-mode:lr-tb;text-anchor:middle;fill:#ffffff;fill-opacity:1;stroke:none;font-family:'Arista 2.0 Light';-inkscape-font-specification:'Arista 2.0 Light, Light'"
       id="path3155"
       inkscape:connector-curvature="0" />
    <path
       d="m 392.33984,76.071936 c 5.44515,9.6e-5 10.60667,1.134511 15.48476,3.403244 4.99141,2.155513 9.35885,5.105011 13.10253,8.848493 3.74348,3.743674 6.69298,8.111118 8.84849,13.102527 2.26873,4.9915 3.40315,10.32324 3.40324,15.99522 -9e-5,5.55875 -1.0778,10.83379 -3.23312,15.82519 -2.15551,4.878 -5.10492,9.18873 -8.8484,12.93231 -3.63026,3.74358 -7.941,6.69308 -12.9324,8.84849 -4.9915,2.15533 -10.37995,3.23303 -16.16544,3.23303 -5.67207,0 -11.00391,-1.021 -15.99531,-3.06291 -4.878,-2.0419 -9.18873,-4.87799 -12.93231,-8.50816 -3.74358,-3.63007 -6.69308,-7.9409 -8.84849,-12.9323 -2.15533,-4.99141 -3.23303,-10.43656 -3.23303,-16.33565 0,-5.67198 1.021,-10.94701 3.06291,-15.8251 2.15541,-4.991314 5.04811,-9.302147 8.67827,-12.932313 3.74358,-3.743482 8.11103,-6.69298 13.10253,-8.848493 5.10482,-2.268733 10.60677,-3.516561 16.50577,-3.743578 m -30.79942,41.349484 c 0,4.19742 0.79408,8.16792 2.38225,11.9114 1.58816,3.63016 3.74357,6.86329 6.46615,9.69928 2.83608,2.72258 6.06911,4.87799 9.69928,6.46615 3.74358,1.58816 7.71398,2.38234 11.9114,2.38234 4.19733,0 8.16773,-0.79408 11.91141,-2.38234 3.74348,-1.58816 6.9766,-3.74357 9.69928,-6.46615 2.83589,-2.83599 5.04801,-6.06912 6.63627,-9.69928 1.58816,-3.74348 2.38224,-7.71398 2.38234,-11.9114 -1e-4,-4.19723 -0.79418,-8.16773 -2.38234,-11.91131 -1.58826,-3.74358 -3.80038,-6.976608 -6.63627,-9.69928 -2.72268,-2.835989 -5.9558,-5.048113 -9.69928,-6.63637 -3.74368,-1.588065 -7.71408,-2.382146 -11.91141,-2.382242 -4.19742,9.6e-5 -8.16782,0.794177 -11.9114,2.382242 -3.63017,1.588257 -6.8632,3.800381 -9.69928,6.63637 -2.72258,2.722672 -4.87799,5.9557 -6.46615,9.69928 -1.58817,3.74358 -2.38225,7.71408 -2.38225,11.91131"
       style="font-size:177.3453064px;font-style:normal;font-variant:normal;font-weight:300;font-stretch:normal;text-align:center;line-height:100%;letter-spacing:0px;word-spacing:0px;writing-mode:lr-tb;text-anchor:middle;fill:#ffffff;fill-opacity:1;stroke:none;font-family:'Arista 2.0 Light';-inkscape-font-specification:'Arista 2.0 Light, Light'"
       id="path3157"
       inkscape:connector-curvature="0" />
    <path
       d="m 483.09494,76.071936 c 5.44515,9.6e-5 10.60677,1.134511 15.48476,3.403244 4.99141,2.155513 9.35885,5.105011 13.10253,8.848493 3.74348,3.743674 6.69298,8.111118 8.84849,13.102527 2.26873,4.9915 3.40315,10.32324 3.40324,15.99522 -9e-5,5.55875 -1.0778,10.83379 -3.23312,15.82519 -2.15542,4.878 -5.10492,9.18873 -8.8484,12.93231 -3.63026,3.74358 -7.941,6.69308 -12.9324,8.84849 -4.99151,2.15533 -10.37995,3.23303 -16.16544,3.23303 -5.67207,0 -11.00381,-1.021 -15.99522,-3.06291 -4.87809,-2.0419 -9.18882,-4.87799 -12.9324,-8.50816 -3.74358,-3.63007 -6.69308,-7.9409 -8.8484,-12.9323 -2.15542,-4.99141 -3.23312,-10.43656 -3.23312,-16.33565 l 0,-63.640739 c 0,-1.474653 0.51045,-2.72248 1.53145,-3.743578 1.021,-1.020906 2.26883,-1.531359 3.74358,-1.531455 1.47475,9.6e-5 2.72258,0.510549 3.74358,1.531455 1.021,1.021098 1.53145,2.268925 1.53145,3.743578 l 0,37.776117 c 3.74358,-4.083912 8.22453,-7.600569 13.44286,-10.550067 5.21823,-3.06291 11.00381,-4.707778 17.35656,-4.934795 m -30.79942,41.349484 c 0,4.19742 0.79408,8.16792 2.38225,11.9114 1.58816,3.63016 3.74357,6.86329 6.46625,9.69928 2.83598,2.72258 6.06901,4.87799 9.69918,6.46615 3.74358,1.58826 7.71398,2.38234 11.9114,2.38234 4.19733,0 8.16773,-0.79408 11.91141,-2.38234 3.74348,-1.58816 6.9766,-3.74357 9.69928,-6.46615 2.83589,-2.83599 5.04801,-6.06912 6.63627,-9.69928 1.58816,-3.74348 2.38224,-7.71398 2.38234,-11.9114 -1e-4,-4.19723 -0.79418,-8.16773 -2.38234,-11.91131 -1.58826,-3.74358 -3.80038,-6.976608 -6.63627,-9.69928 -2.72268,-2.835989 -5.9558,-5.048113 -9.69928,-6.63637 -3.74368,-1.588065 -7.71408,-2.382146 -11.91141,-2.382242 -4.08391,9.6e-5 -7.9409,0.794177 -11.57107,2.382242 -3.63016,1.474845 -6.80649,3.573459 -9.52906,6.296036 -2.72258,2.722672 -4.9347,5.955704 -6.63637,9.699284 -1.70158,3.74357 -2.60916,7.82749 -2.72258,12.25164"
       style="font-size:177.3453064px;font-style:normal;font-variant:normal;font-weight:300;font-stretch:normal;text-align:center;line-height:100%;letter-spacing:0px;word-spacing:0px;writing-mode:lr-tb;text-anchor:middle;fill:#ffffff;fill-opacity:1;stroke:none;font-family:'Arista 2.0 Light';-inkscape-font-specification:'Arista 2.0 Light, Light'"
       id="path3159"
       inkscape:connector-curvature="0" />
    <path
       d="m 570.47865,76.071936 c 5.44515,9.6e-5 10.60677,1.134511 15.48486,3.403244 4.99131,2.155513 9.35885,5.105011 13.10252,8.848493 3.74349,3.743674 6.69298,8.111118 8.8484,13.102527 2.26873,4.9915 3.40315,10.32324 3.40324,15.99522 -9e-5,5.55875 -1.0778,10.83379 -3.23303,15.82519 -2.15551,4.878 -5.10501,9.18873 -8.84849,12.93231 -3.63016,3.74358 -7.941,6.69308 -12.93231,8.84849 -4.9915,2.15533 -10.38004,3.23303 -16.16543,3.23303 -5.67217,0 -11.00391,-1.021 -15.99532,-3.06291 -4.87799,-2.0419 -9.18882,-4.87799 -12.93231,-8.50816 -3.74367,-3.63007 -6.69307,-7.9409 -8.84849,-12.9323 -2.15541,-4.99141 -3.23312,-10.43656 -3.23312,-16.33565 0,-5.67198 1.021,-10.94701 3.063,-15.8251 2.15532,-4.991314 5.04812,-9.302147 8.67828,-12.932313 3.74348,-3.743482 8.11102,-6.69298 13.10252,-8.848493 5.10482,-2.268733 10.60668,-3.516561 16.50568,-3.743578 m -30.79942,41.349484 c 0,4.19742 0.79408,8.16792 2.38234,11.9114 1.58816,3.63016 3.74358,6.86329 6.46616,9.69928 2.83599,2.72258 6.06911,4.87799 9.69928,6.46615 3.74348,1.58816 7.71398,2.38234 11.9114,2.38234 4.19723,0 8.16773,-0.79408 11.91131,-2.38234 3.74357,-1.58816 6.9766,-3.74357 9.69928,-6.46615 2.83598,-2.83599 5.04811,-6.06912 6.63637,-9.69928 1.58806,-3.74348 2.38214,-7.71398 2.38224,-11.9114 -10e-5,-4.19723 -0.79418,-8.16773 -2.38224,-11.91131 -1.58826,-3.74358 -3.80039,-6.976608 -6.63637,-9.69928 -2.72268,-2.835989 -5.95571,-5.048113 -9.69928,-6.63637 -3.74358,-1.588065 -7.71408,-2.382146 -11.91131,-2.382242 -4.19742,9.6e-5 -8.16792,0.794177 -11.9114,2.382242 -3.63017,1.588257 -6.86329,3.800381 -9.69928,6.63637 -2.72258,2.722672 -4.878,5.9557 -6.46616,9.69928 -1.58826,3.74358 -2.38234,7.71408 -2.38234,11.91131"
       style="font-size:177.3453064px;font-style:normal;font-variant:normal;font-weight:300;font-stretch:normal;text-align:center;line-height:100%;letter-spacing:0px;word-spacing:0px;writing-mode:lr-tb;text-anchor:middle;fill:#ffffff;fill-opacity:1;stroke:none;font-family:'Arista 2.0 Light';-inkscape-font-specification:'Arista 2.0 Light, Light'"
       id="path3161"
       inkscape:connector-curvature="0" />
    <path
       style="font-size:177.3453064px;font-style:normal;font-variant:normal;font-weight:300;font-stretch:normal;text-align:center;line-height:100%;letter-spacing:0px;word-spacing:0px;writing-mode:lr-tb;text-anchor:middle;fill:#ffffff;fill-opacity:1;stroke:none;font-family:'Arista 2.0 Light';-inkscape-font-specification:'Arista 2.0 Light, Light'"
       d="m 212.86761,72.24824 c -5.8989,0.226921 -11.38646,1.449322 -16.49128,3.718055 -4.9916,2.155513 -9.35962,5.101844 -13.10319,8.845327 -3.63017,3.630165 -6.54004,7.96182 -8.69546,12.953226 -2.042,4.877992 -3.0584,10.159642 -3.0584,15.831722 0,5.89899 1.08289,11.32006 3.23831,16.31147 2.15542,4.9915 5.10184,9.32315 8.84533,12.95322 3.74367,3.63017 8.04529,6.44351 12.92329,8.48552 4.9914,2.04191 10.33945,3.08843 16.01162,3.08843 6.12582,0 12.52712,0.77422 17.72069,-2.21884 4.92261,-3.4137 9.7107,-10.24744 14.4225,1.01947 1.02091,1.021 2.27325,1.52925 3.74809,1.52925 1.47475,0 2.72689,-0.50825 3.74799,-1.52925 1.02091,-1.021 1.52925,-2.27315 1.52925,-3.74799 l 0,-35.89128 c 0,-5.67208 -1.11954,-11.02013 -3.38827,-16.011628 -2.15552,-4.991406 -5.10194,-9.359618 -8.84533,-13.1031 -3.74377,-3.743674 -8.11179,-6.689909 -13.1032,-8.845422 -4.87799,-2.268734 -10.05679,-3.38818 -15.50194,-3.38818 z M 188.16053,99.294 c 6.40974,0 11.60398,5.19444 11.60398,11.60398 0,6.40954 -5.19424,11.60398 -11.60398,11.60398 -6.40945,0 -11.60388,-5.19444 -11.60388,-11.60398 0,-6.40954 5.19443,-11.60398 11.60388,-11.60398 z m 32.62294,0 c 6.40974,0 11.60398,5.19444 11.60398,11.60398 0,6.40954 -5.19424,11.60398 -11.60398,11.60398 -6.40945,0 -11.60388,-5.19444 -11.60388,-11.60398 0,-6.40954 5.19443,-11.60398 11.60388,-11.60398 z"
       id="path3163"
       inkscape:connector-curvature="0" />
    <path
       transform="matrix(-0.35416055,0,0,0.35416055,296.06359,-343.44324)"
       style="fill:#ffffff;fill-opacity:1"
       d="m 234.51724,1282.8447 c 0,6.1279 -4.9676,11.0955 -11.09544,11.0955 -6.12784,0 -11.09544,-4.9676 -11.09544,-11.0955 0,-6.1278 4.9676,-11.0954 11.09544,-11.0954 6.12784,0 11.09544,4.9676 11.09544,11.0954 z"
       id="path3169" />
    <path
       transform="matrix(-0.35416055,0,0,0.35416055,261.52166,-343.44324)"
       style="fill:#ffffff;fill-opacity:1"
       d="m 234.51724,1282.8447 c 0,6.1279 -4.9676,11.0955 -11.09544,11.0955 -6.12784,0 -11.09544,-4.9676 -11.09544,-11.0955 0,-6.1278 4.9676,-11.0954 11.09544,-11.0954 6.12784,0 11.09544,4.9676 11.09544,11.0954 z"
       id="path3171" />
    <g
       style="font-size:51.61530304px;font-style:normal;font-variant:normal;font-weight:300;font-stretch:normal;text-align:center;line-height:100%;letter-spacing:0px;word-spacing:0px;writing-mode:lr-tb;text-anchor:middle;fill:#888a85;fill-opacity:1;stroke:none;font-family:'Arista 2.0 Light';-inkscape-font-specification:'Arista 2.0 Light, Light'"
       id="text3016">
      <path
         d="m 65.702568,203.22446 c -2e-6,-0.44731 0.154844,-0.82582 0.464538,-1.13554 0.309689,-0.30966 0.688201,-0.46451 1.135536,-0.46454 0.447329,3e-5 0.825841,0.15488 1.135537,0.46454 0.309687,0.30972 0.464533,0.68823 0.464538,1.13554 l 0,21.83327 c -5e-6,0.44734 -0.154851,0.82585 -0.464538,1.13554 -0.309696,0.30969 -0.688208,0.46454 -1.135537,0.46454 -0.447335,0 -0.825847,-0.15485 -1.135536,-0.46454 -0.309694,-0.30969 -0.46454,-0.6882 -0.464538,-1.13554 l 0,-21.83327 m -0.516153,-7.17453 c -10e-7,-0.58494 0.20646,-1.08389 0.619383,-1.49684 0.412921,-0.41289 0.911868,-0.61935 1.496844,-0.61939 0.58497,4e-5 1.083917,0.2065 1.496844,0.61939 0.412917,0.41295 0.619378,0.9119 0.619384,1.49684 -6e-6,0.58501 -0.206467,1.08395 -0.619384,1.49685 -0.412927,0.41295 -0.911874,0.61941 -1.496844,0.61938 -0.584976,3e-5 -1.083923,-0.20643 -1.496844,-0.61938 -0.412923,-0.4129 -0.619384,-0.91184 -0.619383,-1.49685"
         style=""
         id="path2994" />
      <path
         d="m 71.751236,194.86278 c -1e-6,-0.4473 0.154845,-0.82581 0.464538,-1.13554 0.30969,-0.30966 0.688201,-0.4645 1.135537,-0.46453 0.447329,3e-5 0.825841,0.15487 1.135536,0.46453 0.309688,0.30973 0.464533,0.68824 0.464538,1.13554 l 0,6.60676 11.406982,0 c 0.550547,2e-5 0.980674,0.15487 1.290383,0.46454 0.344084,0.30971 0.516135,0.68822 0.516153,1.13553 -1.8e-5,0.44736 -0.172069,0.82587 -0.516153,1.13554 -0.309709,0.30971 -0.739836,0.46456 -1.290383,0.46454 l -11.406982,0 0,9.54883 c -5e-6,1.27319 0.240867,2.47754 0.722614,3.61307 0.481737,1.10113 1.13553,2.08182 1.961382,2.94207 0.860247,0.82585 1.840936,1.47964 2.942072,1.96138 1.135525,0.48175 2.339881,0.72262 3.613071,0.72262 1.273163,0 2.460313,-0.22367 3.561456,-0.671 1.101108,-0.48174 2.064593,-1.13553 2.890457,-1.96138 0.275261,-0.30969 0.619363,-0.48174 1.032306,-0.51616 0.447311,-0.0688 0.860233,0.0344 1.238767,0.3097 0.275259,0.27528 0.44731,0.61938 0.516153,1.0323 0.0688,0.41293 -0.01723,0.80865 -0.258076,1.18715 -1.135558,1.20436 -2.477555,2.15064 -4.025994,2.83885 -1.548476,0.65379 -3.200164,0.98069 -4.955069,0.98069 -1.720522,0 -3.3378,-0.3269 -4.851838,-0.98069 -1.514057,-0.6538 -2.838848,-1.53126 -3.974379,-2.63238 -1.10113,-1.13554 -1.978589,-2.46033 -2.63238,-3.97438 -0.653796,-1.51404 -0.980692,-3.13132 -0.980691,-4.85184 l 0,-19.35574"
         style=""
         id="path2996" />
      <path
         d="m 95.193454,193.77886 c -10e-7,-0.4473 0.154844,-0.82581 0.464538,-1.13554 0.309689,-0.30966 0.688201,-0.4645 1.135537,-0.46454 0.447329,4e-5 0.82584,0.15488 1.135536,0.46454 0.309687,0.30973 0.464533,0.68824 0.464538,1.13554 l 0,7.94876 c -5e-6,0.44735 -0.154851,0.82586 -0.464538,1.13553 -0.309696,0.30972 -0.688207,0.46456 -1.135536,0.46454 -0.447336,2e-5 -0.825848,-0.15482 -1.135537,-0.46454 -0.309694,-0.30967 -0.464539,-0.68818 -0.464538,-1.13553 l 0,-7.94876"
         style=""
         id="path2998" />
      <path
         d="m 101.84941,225.05773 c 0,-0.44733 0.15484,-0.82584 0.46454,-1.13553 0.30968,-0.30969 0.6882,-0.46454 1.13553,-0.46454 l 11.14891,0 c 0.99788,0 1.85813,-0.36131 2.58076,-1.08392 0.7226,-0.72261 1.08391,-1.58287 1.08392,-2.58077 -1e-5,-0.99789 -0.36132,-1.85814 -1.08392,-2.58076 -0.72263,-0.72261 -1.58288,-1.08391 -2.58076,-1.08393 l -6.03899,0 c -0.99791,2e-5 -1.94419,-0.18924 -2.83884,-0.56776 -0.86026,-0.3785 -1.61729,-0.89466 -2.27108,-1.54846 -0.65379,-0.65378 -1.16995,-1.41081 -1.54846,-2.27108 -0.37851,-0.89465 -0.56777,-1.84093 -0.56777,-2.83884 0,-0.99787 0.18926,-1.94415 0.56777,-2.83884 0.37851,-0.89464 0.89467,-1.66887 1.54846,-2.32269 0.65379,-0.65377 1.41082,-1.16992 2.27108,-1.54846 0.89465,-0.37848 1.84093,-0.56774 2.83884,-0.56777 l 10.52952,0 c 0.44731,3e-5 0.82582,0.15488 1.13554,0.46454 0.30967,0.30972 0.46451,0.68823 0.46453,1.13554 -2e-5,0.44735 -0.15486,0.82587 -0.46453,1.13554 -0.30972,0.30971 -0.68823,0.46456 -1.13554,0.46453 l -10.52952,0 c -1.10114,0.0344 -2.04742,0.44736 -2.83884,1.23877 -0.79144,0.79145 -1.18716,1.73773 -1.18716,2.83884 0,1.10115 0.39572,2.04742 1.18716,2.83884 0.79142,0.79145 1.7377,1.18717 2.83884,1.18716 l 6.03899,0 c 0.92906,10e-6 1.80652,0.18927 2.63238,0.56776 0.86024,0.34412 1.60005,0.82586 2.21946,1.44523 0.61936,0.6194 1.1011,1.35922 1.44522,2.21946 0.3785,0.82585 0.56775,1.70331 0.56777,2.63238 -2e-5,0.92908 -0.18927,1.82375 -0.56777,2.684 -0.34412,0.82585 -0.82586,1.54846 -1.44522,2.16784 -0.61941,0.61938 -1.35922,1.11833 -2.21946,1.49684 -0.82586,0.34411 -1.70332,0.51616 -2.63238,0.51616 l -11.14891,0 c -0.44733,0 -0.82585,-0.15485 -1.13553,-0.46454 -0.3097,-0.30969 -0.46454,-0.6882 -0.46454,-1.13554"
         style=""
         id="path3000" />
      <path
         d="m 137.42849,214.01206 c 0,-1.7205 0.32689,-3.33778 0.98069,-4.85184 0.65379,-1.51403 1.53125,-2.82162 2.63238,-3.92276 1.13553,-1.13552 2.46032,-2.03018 3.97438,-2.684 1.51403,-0.65377 3.13131,-0.98067 4.85184,-0.98069 1.72049,2e-5 3.33777,0.32692 4.85183,0.98069 1.51403,0.65382 2.82162,1.54848 3.92277,2.684 1.13551,1.10114 2.03017,2.40873 2.68399,3.92276 0.65377,1.51406 0.98067,3.13134 0.98069,4.85184 l 0,11.04567 c -2e-5,0.44734 -0.15487,0.82585 -0.46453,1.13554 -0.30972,0.30969 -0.68823,0.46454 -1.13554,0.46454 -0.44736,0 -0.82587,-0.15485 -1.13554,-0.46454 -0.30971,-0.30969 -0.46456,-0.6882 -0.46454,-1.13554 l 0,-11.04567 c -2e-5,-1.27317 -0.24089,-2.46032 -0.72261,-3.56146 -0.48176,-1.13552 -1.15276,-2.11621 -2.013,-2.94207 -0.82586,-0.86024 -1.80655,-1.53123 -2.94207,-2.013 -1.10114,-0.48172 -2.28829,-0.72259 -3.56145,-0.72261 -1.27319,2e-5 -2.47755,0.24089 -3.61308,0.72261 -1.10113,0.48177 -2.08182,1.15276 -2.94207,2.013 -0.82585,0.82586 -1.47964,1.80655 -1.96138,2.94207 -0.48175,1.10114 -0.72262,2.28829 -0.72261,3.56146 l 0,11.04567 c -1e-5,0.44734 -0.15485,0.82585 -0.46454,1.13554 -0.3097,0.30969 -0.68821,0.46454 -1.13554,0.46454 -0.44733,0 -0.82585,-0.15485 -1.13554,-0.46454 -0.30969,-0.30969 -0.46453,-0.6882 -0.46453,-1.13554 l 0,-11.04567"
         style=""
         id="path3002" />
      <path
         d="m 177.43599,201.676 c 1.65167,2e-5 3.21734,0.34413 4.69699,1.03231 1.51403,0.65381 2.83882,1.54848 3.97438,2.68399 1.13551,1.13556 2.03018,2.46035 2.684,3.97438 0.68817,1.51406 1.03228,3.13134 1.0323,4.85184 -2e-5,1.68611 -0.32692,3.28618 -0.98069,4.80022 -0.65382,1.47965 -1.54848,2.78723 -2.68399,3.92276 -1.10115,1.13554 -2.40874,2.03021 -3.92277,2.684 -1.51406,0.65379 -3.14855,0.98069 -4.90345,0.98069 -1.72052,0 -3.3378,-0.30969 -4.85184,-0.92907 -1.47965,-0.61939 -2.78723,-1.47964 -3.92276,-2.58077 -1.13554,-1.10112 -2.03021,-2.40871 -2.684,-3.92276 -0.65379,-1.51404 -0.98069,-3.16573 -0.98069,-4.95507 0,-1.7205 0.30969,-3.32057 0.92908,-4.80022 0.65379,-1.51403 1.53125,-2.82162 2.63238,-3.92277 1.13553,-1.13551 2.46032,-2.03018 3.97438,-2.68399 1.54844,-0.68818 3.21734,-1.06669 5.00668,-1.13554 m -9.34237,12.54252 c 0,1.27319 0.24087,2.47754 0.72261,3.61307 0.48174,1.10113 1.13553,2.08182 1.96139,2.94207 0.86024,0.82585 1.84093,1.47964 2.94207,1.96138 1.13552,0.48175 2.33988,0.72262 3.61307,0.72262 1.27316,0 2.47752,-0.24087 3.61307,-0.72262 1.13552,-0.48174 2.11621,-1.13553 2.94207,-1.96138 0.86024,-0.86025 1.53123,-1.84094 2.013,-2.94207 0.48172,-1.13553 0.72259,-2.33988 0.72261,-3.61307 -2e-5,-1.27317 -0.24089,-2.47752 -0.72261,-3.61307 -0.48177,-1.13552 -1.15276,-2.11621 -2.013,-2.94208 -0.82586,-0.86023 -1.80655,-1.53123 -2.94207,-2.01299 -1.13555,-0.48172 -2.33991,-0.72259 -3.61307,-0.72262 -1.27319,3e-5 -2.47755,0.2409 -3.61307,0.72262 -1.10114,0.48176 -2.08183,1.15276 -2.94207,2.01299 -0.82586,0.82587 -1.47965,1.80656 -1.96139,2.94208 -0.48174,1.13555 -0.72261,2.3399 -0.72261,3.61307"
         style=""
         id="path3004" />
      <path
         d="m 192.42217,194.86278 c 0,-0.4473 0.15485,-0.82581 0.46454,-1.13554 0.30969,-0.30966 0.6882,-0.4645 1.13554,-0.46453 0.44733,3e-5 0.82584,0.15487 1.13553,0.46453 0.30969,0.30973 0.46454,0.68824 0.46454,1.13554 l 0,6.60676 11.40698,0 c 0.55055,2e-5 0.98068,0.15487 1.29039,0.46454 0.34408,0.30971 0.51613,0.68822 0.51615,1.13553 -2e-5,0.44736 -0.17207,0.82587 -0.51615,1.13554 -0.30971,0.30971 -0.73984,0.46456 -1.29039,0.46454 l -11.40698,0 0,9.54883 c 0,1.27319 0.24087,2.47754 0.72262,3.61307 0.48173,1.10113 1.13553,2.08182 1.96138,2.94207 0.86024,0.82585 1.84093,1.47964 2.94207,1.96138 1.13552,0.48175 2.33988,0.72262 3.61307,0.72262 1.27316,0 2.46031,-0.22367 3.56146,-0.671 1.1011,-0.48174 2.06459,-1.13553 2.89045,-1.96138 0.27526,-0.30969 0.61937,-0.48174 1.03231,-0.51616 0.44731,-0.0688 0.86023,0.0344 1.23877,0.3097 0.27526,0.27528 0.44731,0.61938 0.51615,1.0323 0.0688,0.41293 -0.0172,0.80865 -0.25808,1.18715 -1.13556,1.20436 -2.47755,2.15064 -4.02599,2.83885 -1.54848,0.65379 -3.20016,0.98069 -4.95507,0.98069 -1.72052,0 -3.3378,-0.3269 -4.85184,-0.98069 -1.51405,-0.6538 -2.83885,-1.53126 -3.97438,-2.63238 -1.10113,-1.13554 -1.97859,-2.46033 -2.63238,-3.97438 -0.65379,-1.51404 -0.98069,-3.13132 -0.98069,-4.85184 l 0,-19.35574"
         style=""
         id="path3006" />
      <path
         d="m 242.89871,210.08929 c -0.0688,-1.51403 -0.6194,-2.77 -1.65169,-3.76791 -0.99791,-0.99788 -2.20226,-1.49682 -3.61307,-1.49685 -0.72262,3e-5 -1.41083,0.13767 -2.06461,0.41293 -0.61939,0.2753 -1.16996,0.65381 -1.65169,1.13553 -0.44734,0.48176 -0.80865,1.04953 -1.08392,1.70331 -0.27529,0.6194 -0.41293,1.2904 -0.41293,2.01299 l 0,14.96844 c 0,0.44734 -0.15485,0.82585 -0.46453,1.13554 -0.3097,0.30969 -0.68821,0.46454 -1.13554,0.46454 -0.44734,0 -0.82585,-0.15485 -1.13554,-0.46454 -0.30969,-0.30969 -0.46454,-0.6882 -0.46454,-1.13554 l 0,-14.96844 c 0,-1.16993 0.20646,-2.27105 0.61939,-3.30338 0.44733,-1.03228 1.04951,-1.92694 1.80653,-2.68399 0.75702,-0.757 1.65169,-1.35918 2.684,-1.80654 1.0323,-0.4473 2.13342,-0.67097 3.30338,-0.671 1.44522,3e-5 2.7528,0.32693 3.92276,0.9807 1.16993,0.6194 2.13342,1.46245 2.89046,2.52915 0.79142,-1.0667 1.77211,-1.90975 2.94207,-2.52915 1.16993,-0.65377 2.47751,-0.98067 3.92276,-0.9807 1.16993,3e-5 2.27105,0.2237 3.30338,0.671 1.03228,0.44736 1.92695,1.04954 2.684,1.80654 0.75699,0.75705 1.35917,1.65171 1.80653,2.68399 0.44731,1.03233 0.67097,2.13345 0.671,3.30338 l 0,14.96844 c -3e-5,0.44734 -0.15487,0.82585 -0.46453,1.13554 -0.30973,0.30969 -0.68824,0.46454 -1.13554,0.46454 -0.44736,0 -0.82588,-0.15485 -1.13554,-0.46454 -0.30972,-0.30969 -0.46456,-0.6882 -0.46454,-1.13554 l 0,-14.96844 c -2e-5,-0.72259 -0.13766,-1.39359 -0.41292,-2.01299 -0.27531,-0.65378 -0.65382,-1.22155 -1.13553,-1.70331 -0.48177,-0.48172 -1.04954,-0.86023 -1.70331,-1.13553 -0.61941,-0.27526 -1.29041,-0.4129 -2.013,-0.41293 -0.72263,3e-5 -1.41084,0.13767 -2.06461,0.41293 -0.6194,0.2753 -1.16997,0.65381 -1.65169,1.13553 -0.44735,0.48176 -0.80866,1.04953 -1.08392,1.70331 -0.2753,0.6194 -0.41294,1.2904 -0.41292,2.01299 l 0,14.96844 c -2e-5,0.44734 -0.15487,0.82585 -0.46454,1.13554 -0.30971,0.30969 -0.68822,0.46454 -1.13554,0.46454 -0.44734,0 -0.82586,-0.15485 -1.13553,-0.46454 -0.30971,-0.30969 -0.46456,-0.6882 -0.46454,-1.13554 l 0,-14.96844"
         style=""
         id="path3008" />
      <path
         d="m 275.02116,201.676 c 1.65168,2e-5 3.21734,0.34413 4.697,1.03231 1.51403,0.65381 2.83882,1.54848 3.97438,2.68399 1.13551,1.13556 2.03017,2.46035 2.68399,3.97438 0.68818,1.51406 1.03228,3.13134 1.03231,4.85184 l 0,10.89083 c -3e-5,0.44733 -0.15487,0.82584 -0.46454,1.13553 -0.30972,0.3097 -0.68823,0.46454 -1.13554,0.46454 -0.44735,0 -0.82587,-0.15484 -1.13553,-0.46454 -0.30972,-0.30969 -0.46456,-0.6882 -0.46454,-1.13553 l 0,-3.14854 c -1.13556,1.27318 -2.51197,2.37431 -4.12923,3.30338 -1.58288,0.89467 -3.30339,1.342 -5.16153,1.342 -1.72052,0 -3.3378,-0.30969 -4.85183,-0.92907 -1.47965,-0.61939 -2.78724,-1.47964 -3.92277,-2.58077 -1.13554,-1.10112 -2.0302,-2.40871 -2.68399,-3.92276 -0.6538,-1.51404 -0.9807,-3.16573 -0.98069,-4.95507 -1e-5,-1.7205 0.30969,-3.32057 0.92907,-4.80022 0.65379,-1.51403 1.53125,-2.82162 2.63238,-3.92277 1.13553,-1.13551 2.46032,-2.03018 3.97438,-2.68399 1.54845,-0.68818 3.21734,-1.06669 5.00668,-1.13554 m -9.34237,12.54252 c 0,1.27319 0.24087,2.47754 0.72262,3.61307 0.48174,1.10113 1.13553,2.08182 1.96138,2.94207 0.86025,0.82585 1.84094,1.47964 2.94207,1.96138 1.13553,0.48175 2.33988,0.72262 3.61307,0.72262 1.23876,0 2.4087,-0.22367 3.50984,-0.671 1.10111,-0.48174 2.0646,-1.13553 2.89046,-1.96138 0.86024,-0.82584 1.53123,-1.78933 2.013,-2.89046 0.51613,-1.13553 0.80862,-2.37429 0.87746,-3.7163 -2e-5,-1.27317 -0.2409,-2.47752 -0.72262,-3.61307 -0.48176,-1.13552 -1.15276,-2.11621 -2.01299,-2.94208 -0.82587,-0.86023 -1.80656,-1.53123 -2.94208,-2.01299 -1.13555,-0.48172 -2.3399,-0.72259 -3.61307,-0.72262 -1.27319,3e-5 -2.47754,0.2409 -3.61307,0.72262 -1.10113,0.48176 -2.08182,1.15276 -2.94207,2.01299 -0.82585,0.82587 -1.47964,1.80656 -1.96138,2.94208 -0.48175,1.13555 -0.72262,2.3399 -0.72262,3.61307"
         style=""
         id="path3010" />
      <path
         d="m 299.49732,235.94856 c -0.41294,0.0344 -0.87747,0.20645 -1.39362,0.51615 -0.51616,0.30969 -0.91188,0.6882 -1.18715,1.13554 -0.20647,0.3785 -0.51616,0.63658 -0.92908,0.77423 -0.41292,0.13763 -0.82585,0.12042 -1.23876,-0.0516 -0.37852,-0.20647 -0.6366,-0.51616 -0.77423,-0.92907 -0.10324,-0.41293 -0.0688,-0.80865 0.10323,-1.18715 0.48174,-0.99791 1.20435,-1.82375 2.16784,-2.47754 0.96348,-0.61939 2.0474,-0.92908 3.25177,-0.92907 l 6.81322,0 c 0.72259,-1e-5 1.41079,-0.13765 2.06461,-0.41292 0.65377,-0.27529 1.22154,-0.6538 1.7033,-1.13554 0.48172,-0.48175 0.86024,-1.04952 1.13554,-1.70331 0.27526,-0.65379 0.4129,-1.342 0.41292,-2.06461 -2e-5,-0.6882 -0.13766,-1.342 -0.41292,-1.96138 -0.24089,-0.65379 -0.6022,-1.22156 -1.08392,-1.70331 -1.10115,0.86026 -2.3055,1.53126 -3.61307,2.013 -1.30761,0.48174 -2.71842,0.72262 -4.23246,0.72262 -1.72052,0 -3.3378,-0.3097 -4.85184,-0.92908 -1.47964,-0.61938 -2.78723,-1.47964 -3.92276,-2.58076 -1.13554,-1.10113 -2.0302,-2.40871 -2.684,-3.92277 -0.65379,-1.51404 -0.98069,-3.16573 -0.98069,-4.95507 0,-1.72049 0.30969,-3.32057 0.92908,-4.80022 0.65379,-1.51403 1.53125,-2.82162 2.63238,-3.92276 1.13553,-1.13552 2.46032,-2.03018 3.97438,-2.684 1.54845,-0.68818 3.21734,-1.06669 5.00668,-1.13554 1.65168,3e-5 3.21734,0.34413 4.69699,1.03231 1.51403,0.65382 2.83883,1.54848 3.97438,2.684 1.13552,1.13555 2.03018,2.46034 2.684,3.97437 0.68818,1.51407 1.03228,3.13135 1.0323,4.85184 -2e-5,1.37642 -0.22369,2.70121 -0.67099,3.97438 -0.41295,1.23878 -1.01513,2.37431 -1.80654,3.40661 0.757,0.75703 1.35918,1.65169 1.80654,2.684 0.4473,0.99789 0.67097,2.08181 0.67099,3.25176 -2e-5,1.16995 -0.22369,2.25387 -0.67099,3.25177 -0.44736,1.0323 -1.04954,1.92696 -1.80654,2.68399 -0.75705,0.79143 -1.65171,1.41081 -2.684,1.85815 -1.03232,0.44733 -2.13345,0.67099 -3.30337,0.671 l -6.81322,0 M 293.0454,214.1669 c 0,1.27319 0.24087,2.47755 0.72262,3.61307 0.48173,1.10114 1.13553,2.08183 1.96138,2.94208 0.86025,0.82585 1.84094,1.47964 2.94207,1.96138 1.13553,0.48174 2.33988,0.72262 3.61307,0.72261 1.27316,1e-5 2.47752,-0.24087 3.61307,-0.72261 1.13552,-0.48174 2.11621,-1.13553 2.94208,-1.96138 0.86023,-0.86025 1.53123,-1.84094 2.01299,-2.94208 0.48172,-1.13552 0.72259,-2.33988 0.72262,-3.61307 -3e-5,-1.27316 -0.2409,-2.47752 -0.72262,-3.61307 -0.48176,-1.13552 -1.15276,-2.11621 -2.01299,-2.94207 -0.82587,-0.86024 -1.80656,-1.53123 -2.94208,-2.013 -1.13555,-0.48172 -2.33991,-0.72259 -3.61307,-0.72261 -1.27319,2e-5 -2.47754,0.24089 -3.61307,0.72261 -1.10113,0.48177 -2.08182,1.15276 -2.94207,2.013 -0.82585,0.82586 -1.47965,1.80655 -1.96138,2.94207 -0.48175,1.13555 -0.72262,2.33991 -0.72262,3.61307"
         style=""
         id="path3012" />
      <path
         d="m 317.42799,203.22446 c -1e-5,-0.44731 0.15484,-0.82582 0.46453,-1.13554 0.30969,-0.30966 0.68821,-0.46451 1.13554,-0.46454 0.44733,3e-5 0.82584,0.15488 1.13554,0.46454 0.30968,0.30972 0.46453,0.68823 0.46453,1.13554 l 0,21.83327 c 0,0.44734 -0.15485,0.82585 -0.46453,1.13554 -0.3097,0.30969 -0.68821,0.46454 -1.13554,0.46454 -0.44733,0 -0.82585,-0.15485 -1.13554,-0.46454 -0.30969,-0.30969 -0.46454,-0.6882 -0.46453,-1.13554 l 0,-21.83327 m -0.51616,-7.17453 c 0,-0.58494 0.20646,-1.08389 0.61939,-1.49684 0.41292,-0.41289 0.91186,-0.61935 1.49684,-0.61939 0.58497,4e-5 1.08392,0.2065 1.49684,0.61939 0.41292,0.41295 0.61938,0.9119 0.61939,1.49684 -1e-5,0.58501 -0.20647,1.08395 -0.61939,1.49685 -0.41292,0.41295 -0.91187,0.61941 -1.49684,0.61938 -0.58498,3e-5 -1.08392,-0.20643 -1.49684,-0.61938 -0.41293,-0.4129 -0.61939,-0.91184 -0.61939,-1.49685"
         style=""
         id="path3014" />
      <path
         d="m 341.95492,207.45691 c -0.86027,-0.757 -1.84096,-1.35918 -2.94207,-1.80653 -1.10114,-0.48172 -2.28829,-0.72259 -3.56145,-0.72262 -1.27319,3e-5 -2.47755,0.2409 -3.61307,0.72262 -1.10114,0.48176 -2.08183,1.15276 -2.94208,2.01299 -0.82585,0.82587 -1.47964,1.80656 -1.96138,2.94208 -0.48175,1.13555 -0.72262,2.3399 -0.72261,3.61307 -1e-5,1.27319 0.24086,2.47754 0.72261,3.61307 0.48174,1.10113 1.13553,2.08182 1.96138,2.94207 0.86025,0.82585 1.84094,1.47964 2.94208,1.96138 1.13552,0.48175 2.33988,0.72262 3.61307,0.72262 1.27316,0 2.46031,-0.22367 3.56145,-0.671 1.10111,-0.48174 2.0818,-1.13553 2.94207,-1.96138 0.30968,-0.30969 0.68819,-0.46453 1.13554,-0.46454 0.44731,1e-5 0.82582,0.15485 1.13554,0.46454 0.30967,0.30969 0.44731,0.70541 0.41292,1.18715 -2e-5,0.44734 -0.18928,0.86026 -0.56777,1.23877 -0.30971,0.30969 -0.73984,0.671 -1.29038,1.08392 -0.51617,0.37851 -1.15276,0.73982 -1.90977,1.08392 -0.72263,0.3441 -1.54847,0.63659 -2.47753,0.87746 -0.89468,0.20646 -1.87537,0.30969 -2.94207,0.30969 -1.72053,0 -3.3378,-0.30969 -4.85184,-0.92907 -1.47965,-0.61939 -2.78723,-1.47964 -3.92277,-2.58077 -1.13554,-1.10112 -2.0302,-2.40871 -2.68399,-3.92276 -0.6538,-1.51404 -0.98069,-3.16573 -0.98069,-4.95507 0,-1.7205 0.30969,-3.32057 0.92907,-4.80022 0.6538,-1.51403 1.53125,-2.82162 2.63238,-3.92277 1.13554,-1.13551 2.46033,-2.03018 3.97438,-2.68399 1.54845,-0.68818 3.21734,-1.06669 5.00669,-1.13554 1.03229,2e-5 1.97857,0.13767 2.83884,0.41292 0.89465,0.2409 1.68608,0.55059 2.3743,0.92908 0.7226,0.34412 1.35919,0.72263 1.90977,1.13553 0.55054,0.41295 0.99787,0.77426 1.342,1.08393 0.20644,0.17207 0.37849,0.49896 0.51615,0.98069 0.17203,0.44735 0.0688,0.86027 -0.30969,1.23876 -0.30972,0.30971 -0.68823,0.46456 -1.13554,0.46454 -0.44735,2e-5 -0.82586,-0.15483 -1.13554,-0.46454"
         style=""
         id="path3016" />
      <path
         d="m 346.61645,224.64481 c 0,-0.44733 0.15484,-0.82584 0.46453,-1.13554 0.30969,-0.30969 0.68821,-0.46453 1.13554,-0.46453 0.44733,0 0.82584,0.15484 1.13554,0.46453 0.30969,0.3097 0.46453,0.68821 0.46454,1.13554 l 0,7.94876 c -10e-6,0.3785 -0.15485,0.73981 -0.46454,1.08392 -0.3097,0.34409 -0.68821,0.51614 -1.13554,0.51615 -0.44733,-10e-6 -0.82585,-0.15485 -1.13554,-0.46454 -0.30969,-0.3097 -0.46453,-0.68821 -0.46453,-1.13553 l 0,-7.94876"
         style=""
         id="path3018" />
      <path
         d="m 366.4222,203.22446 c 0,-0.44731 0.15485,-0.82582 0.46454,-1.13554 0.30969,-0.30966 0.6882,-0.46451 1.13554,-0.46454 0.44733,3e-5 0.82584,0.15488 1.13553,0.46454 0.30969,0.30972 0.46454,0.68823 0.46454,1.13554 l 0,21.83327 c 0,0.44734 -0.15485,0.82585 -0.46454,1.13554 -0.30969,0.30969 -0.6882,0.46454 -1.13553,0.46454 -0.44734,0 -0.82585,-0.15485 -1.13554,-0.46454 -0.30969,-0.30969 -0.46454,-0.6882 -0.46454,-1.13554 l 0,-21.83327 m -0.51615,-7.17453 c 0,-0.58494 0.20646,-1.08389 0.61938,-1.49684 0.41292,-0.41289 0.91187,-0.61935 1.49685,-0.61939 0.58497,4e-5 1.08391,0.2065 1.49684,0.61939 0.41292,0.41295 0.61938,0.9119 0.61938,1.49684 0,0.58501 -0.20646,1.08395 -0.61938,1.49685 -0.41293,0.41295 -0.91187,0.61941 -1.49684,0.61938 -0.58498,3e-5 -1.08393,-0.20643 -1.49685,-0.61938 -0.41292,-0.4129 -0.61938,-0.91184 -0.61938,-1.49685"
         style=""
         id="path3020" />
      <path
         d="m 372.47088,194.86278 c 0,-0.4473 0.15484,-0.82581 0.46454,-1.13554 0.30969,-0.30966 0.6882,-0.4645 1.13553,-0.46453 0.44733,3e-5 0.82584,0.15487 1.13554,0.46453 0.30969,0.30973 0.46453,0.68824 0.46454,1.13554 l 0,6.60676 11.40698,0 c 0.55055,2e-5 0.98067,0.15487 1.29038,0.46454 0.34409,0.30971 0.51614,0.68822 0.51615,1.13553 -1e-5,0.44736 -0.17206,0.82587 -0.51615,1.13554 -0.30971,0.30971 -0.73983,0.46456 -1.29038,0.46454 l -11.40698,0 0,9.54883 c -10e-6,1.27319 0.24086,2.47754 0.72261,3.61307 0.48174,1.10113 1.13553,2.08182 1.96138,2.94207 0.86025,0.82585 1.84094,1.47964 2.94208,1.96138 1.13552,0.48175 2.33988,0.72262 3.61307,0.72262 1.27316,0 2.46031,-0.22367 3.56145,-0.671 1.10111,-0.48174 2.06459,-1.13553 2.89046,-1.96138 0.27526,-0.30969 0.61936,-0.48174 1.03231,-0.51616 0.44731,-0.0688 0.86023,0.0344 1.23876,0.3097 0.27526,0.27528 0.44731,0.61938 0.51616,1.0323 0.0688,0.41293 -0.0172,0.80865 -0.25808,1.18715 -1.13556,1.20436 -2.47756,2.15064 -4.02599,2.83885 -1.54848,0.65379 -3.20017,0.98069 -4.95507,0.98069 -1.72053,0 -3.3378,-0.3269 -4.85184,-0.98069 -1.51406,-0.6538 -2.83885,-1.53126 -3.97438,-2.63238 -1.10113,-1.13554 -1.97859,-2.46033 -2.63238,-3.97438 -0.6538,-1.51404 -0.98069,-3.13132 -0.98069,-4.85184 l 0,-19.35574"
         style=""
         id="path3022" />
      <path
         d="m 395.91308,193.77886 c 0,-0.4473 0.15484,-0.82581 0.46454,-1.13554 0.30968,-0.30966 0.6882,-0.4645 1.13553,-0.46454 0.44733,4e-5 0.82584,0.15488 1.13554,0.46454 0.30969,0.30973 0.46453,0.68824 0.46454,1.13554 l 0,7.94876 c -10e-6,0.44735 -0.15485,0.82586 -0.46454,1.13553 -0.3097,0.30972 -0.68821,0.46456 -1.13554,0.46454 -0.44733,2e-5 -0.82585,-0.15482 -1.13553,-0.46454 -0.3097,-0.30967 -0.46454,-0.68818 -0.46454,-1.13553 l 0,-7.94876"
         style=""
         id="path3024" />
      <path
         d="m 402.56904,225.05773 c 0,-0.44733 0.15485,-0.82584 0.46454,-1.13553 0.30969,-0.30969 0.6882,-0.46454 1.13554,-0.46454 l 11.1489,0 c 0.99788,0 1.85814,-0.36131 2.58077,-1.08392 0.72259,-0.72261 1.0839,-1.58287 1.08392,-2.58077 -2e-5,-0.99789 -0.36133,-1.85814 -1.08392,-2.58076 -0.72263,-0.72261 -1.58289,-1.08391 -2.58077,-1.08393 l -6.03899,0 c -0.9979,2e-5 -1.94418,-0.18924 -2.83884,-0.56776 -0.86026,-0.3785 -1.61728,-0.89466 -2.27107,-1.54846 -0.6538,-0.65378 -1.16995,-1.41081 -1.54846,-2.27108 -0.37852,-0.89465 -0.56777,-1.84093 -0.56777,-2.83884 0,-0.99787 0.18925,-1.94415 0.56777,-2.83884 0.37851,-0.89464 0.89466,-1.66887 1.54846,-2.32269 0.65379,-0.65377 1.41081,-1.16992 2.27107,-1.54846 0.89466,-0.37848 1.84094,-0.56774 2.83884,-0.56777 l 10.52952,0 c 0.44732,3e-5 0.82583,0.15488 1.13554,0.46454 0.30967,0.30972 0.46452,0.68823 0.46454,1.13554 -2e-5,0.44735 -0.15487,0.82587 -0.46454,1.13554 -0.30971,0.30971 -0.68822,0.46456 -1.13554,0.46453 l -10.52952,0 c -1.10113,0.0344 -2.04741,0.44736 -2.83884,1.23877 -0.79144,0.79145 -1.18716,1.73773 -1.18715,2.83884 -10e-6,1.10115 0.39571,2.04742 1.18715,2.83884 0.79143,0.79145 1.73771,1.18717 2.83884,1.18716 l 6.03899,0 c 0.92906,10e-6 1.80652,0.18927 2.63238,0.56776 0.86024,0.34412 1.60006,0.82586 2.21946,1.44523 0.61936,0.6194 1.10111,1.35922 1.44523,2.21946 0.37849,0.82585 0.56775,1.70331 0.56777,2.63238 -2e-5,0.92908 -0.18928,1.82375 -0.56777,2.684 -0.34412,0.82585 -0.82587,1.54846 -1.44523,2.16784 -0.6194,0.61938 -1.35922,1.11833 -2.21946,1.49684 -0.82586,0.34411 -1.70332,0.51616 -2.63238,0.51616 l -11.1489,0 c -0.44734,0 -0.82585,-0.15485 -1.13554,-0.46454 -0.30969,-0.30969 -0.46454,-0.6882 -0.46454,-1.13554"
         style=""
         id="path3026" />
      <path
         d="m 451.98102,203.22446 c -2e-5,-0.44731 0.15483,-0.82582 0.46453,-1.13554 0.30968,-0.30966 0.68819,-0.46451 1.13554,-0.46454 0.44732,3e-5 0.82583,0.15488 1.13554,0.46454 0.30967,0.30972 0.46452,0.68823 0.46453,1.13554 l 0,14.96844 c -10e-6,0.72262 0.13763,1.41082 0.41293,2.06461 0.27526,0.61939 0.63657,1.16995 1.08392,1.65169 0.48172,0.48175 1.03228,0.86026 1.65169,1.13554 0.65377,0.27528 1.34197,0.41292 2.06461,0.41292 0.72259,0 1.39359,-0.13764 2.013,-0.41292 0.65376,-0.27528 1.22153,-0.65379 1.7033,-1.13554 0.48172,-0.48174 0.86023,-1.0323 1.13554,-1.65169 0.27525,-0.65379 0.41289,-1.34199 0.41292,-2.06461 l 0,-14.96844 c -3e-5,-0.44731 0.15482,-0.82582 0.46454,-1.13554 0.30966,-0.30966 0.68817,-0.46451 1.13554,-0.46454 0.4473,3e-5 0.82581,0.15488 1.13553,0.46454 0.30966,0.30972 0.46451,0.68823 0.46454,1.13554 l 0,14.96844 c -3e-5,1.16995 -0.2237,2.27108 -0.671,3.30338 -0.44736,1.03231 -1.04954,1.92697 -1.80653,2.68399 -0.75706,0.75703 -1.65172,1.35921 -2.684,1.80654 -1.03233,0.44733 -2.13346,0.671 -3.30338,0.671 -1.44525,0 -2.75284,-0.3097 -3.92276,-0.92908 -1.16997,-0.65379 -2.15066,-1.51405 -2.94208,-2.58076 -0.75704,1.06671 -1.72052,1.92697 -2.89045,2.58076 -1.16996,0.61938 -2.47755,0.92908 -3.92277,0.92908 -1.16995,0 -2.27108,-0.22367 -3.30337,-0.671 -1.03232,-0.44733 -1.92698,-1.04951 -2.684,-1.80654 -0.75703,-0.75702 -1.35921,-1.65168 -1.80654,-2.68399 -0.41292,-1.0323 -0.61938,-2.13343 -0.61938,-3.30338 l 0,-14.96844 c 0,-0.44731 0.15484,-0.82582 0.46454,-1.13554 0.30969,-0.30966 0.6882,-0.46451 1.13553,-0.46454 0.44733,3e-5 0.82585,0.15488 1.13554,0.46454 0.30969,0.30972 0.46453,0.68823 0.46454,1.13554 l 0,14.96844 c -10e-6,0.72262 0.13764,1.41082 0.41292,2.06461 0.27528,0.61939 0.63658,1.16995 1.08392,1.65169 0.48174,0.48175 1.0323,0.86026 1.65169,1.13554 0.65379,0.27528 1.34199,0.41292 2.06461,0.41292 1.41081,0 2.61517,-0.49895 3.61308,-1.49685 1.03229,-0.99789 1.58285,-2.25386 1.65169,-3.76791 l 0,-14.96844"
         style=""
         id="path3028" />
      <path
         d="m 484.10349,201.676 c 1.65167,2e-5 3.21733,0.34413 4.69699,1.03231 1.51403,0.65381 2.83882,1.54848 3.97438,2.68399 1.13551,1.13556 2.03017,2.46035 2.68399,3.97438 0.68818,1.51406 1.03228,3.13134 1.03231,4.85184 l 0,10.89083 c -3e-5,0.44733 -0.15487,0.82584 -0.46454,1.13553 -0.30972,0.3097 -0.68823,0.46454 -1.13554,0.46454 -0.44735,0 -0.82586,-0.15484 -1.13553,-0.46454 -0.30972,-0.30969 -0.46456,-0.6882 -0.46454,-1.13553 l 0,-3.14854 c -1.13556,1.27318 -2.51197,2.37431 -4.12922,3.30338 -1.58289,0.89467 -3.3034,1.342 -5.16154,1.342 -1.72052,0 -3.33779,-0.30969 -4.85183,-0.92907 -1.47965,-0.61939 -2.78724,-1.47964 -3.92277,-2.58077 -1.13554,-1.10112 -2.0302,-2.40871 -2.68399,-3.92276 -0.6538,-1.51404 -0.98069,-3.16573 -0.98069,-4.95507 0,-1.7205 0.30969,-3.32057 0.92907,-4.80022 0.65379,-1.51403 1.53125,-2.82162 2.63238,-3.92277 1.13553,-1.13551 2.46033,-2.03018 3.97438,-2.68399 1.54845,-0.68818 3.21734,-1.06669 5.00669,-1.13554 m -9.34237,12.54252 c -1e-5,1.27319 0.24086,2.47754 0.72261,3.61307 0.48174,1.10113 1.13553,2.08182 1.96138,2.94207 0.86025,0.82585 1.84094,1.47964 2.94207,1.96138 1.13553,0.48175 2.33989,0.72262 3.61307,0.72262 1.23876,0 2.4087,-0.22367 3.50985,-0.671 1.1011,-0.48174 2.06459,-1.13553 2.89045,-1.96138 0.86024,-0.82584 1.53123,-1.78933 2.013,-2.89046 0.51613,-1.13553 0.80862,-2.37429 0.87746,-3.7163 -2e-5,-1.27317 -0.24089,-2.47752 -0.72261,-3.61307 -0.48177,-1.13552 -1.15277,-2.11621 -2.013,-2.94208 -0.82587,-0.86023 -1.80656,-1.53123 -2.94207,-2.01299 -1.13556,-0.48172 -2.33991,-0.72259 -3.61308,-0.72262 -1.27318,3e-5 -2.47754,0.2409 -3.61307,0.72262 -1.10113,0.48176 -2.08182,1.15276 -2.94207,2.01299 -0.82585,0.82587 -1.47964,1.80656 -1.96138,2.94208 -0.48175,1.13555 -0.72262,2.3399 -0.72261,3.61307"
         style=""
         id="path3030" />
      <path
         d="m 510.74745,201.676 c 1.92696,0.0689 3.68187,0.56779 5.26476,1.49684 1.58285,0.89469 2.94205,1.96141 4.07761,3.20015 l 0,-11.40698 c -2e-5,-0.4473 0.15482,-0.82581 0.46454,-1.13554 0.30967,-0.30966 0.68818,-0.4645 1.13553,-0.46453 0.44731,3e-5 0.82582,0.15487 1.13554,0.46453 0.30967,0.30973 0.46451,0.68824 0.46454,1.13554 l 0,19.25251 c -3e-5,1.78934 -0.32692,3.44103 -0.98069,4.95507 -0.65382,1.51405 -1.54849,2.82164 -2.684,3.92276 -1.13556,1.10113 -2.46035,1.96138 -3.97438,2.58077 -1.51406,0.61938 -3.11414,0.92907 -4.80022,0.92907 -1.75493,0 -3.38942,-0.3269 -4.90345,-0.98069 -1.51406,-0.65379 -2.83885,-1.54846 -3.97438,-2.684 -1.10113,-1.13553 -1.97859,-2.44311 -2.63238,-3.92276 -0.6538,-1.51404 -0.98069,-3.11411 -0.98069,-4.80022 0,-1.7205 0.32689,-3.33778 0.98069,-4.85184 0.6882,-1.51403 1.60007,-2.83882 2.73561,-3.97438 1.13553,-1.13551 2.44312,-2.03018 3.92276,-2.68399 1.51404,-0.68818 3.09691,-1.03229 4.74861,-1.03231 m 9.34237,12.54252 c -0.0688,-1.34199 -0.36133,-2.58075 -0.87746,-3.7163 -0.48177,-1.13552 -1.13556,-2.11621 -1.96138,-2.94208 -0.82587,-0.82582 -1.78935,-1.46241 -2.89046,-1.90976 -1.10114,-0.48172 -2.27109,-0.72259 -3.50984,-0.72262 -1.27319,3e-5 -2.47755,0.2409 -3.61307,0.72262 -1.13555,0.48176 -2.13344,1.15276 -2.99369,2.01299 -0.82585,0.82587 -1.47964,1.80656 -1.96138,2.94208 -0.48175,1.13555 -0.72262,2.3399 -0.72262,3.61307 0,1.27319 0.24087,2.47754 0.72262,3.61307 0.48174,1.10113 1.13553,2.08182 1.96138,2.94207 0.86025,0.82585 1.85814,1.47964 2.99369,1.96138 1.13552,0.48175 2.33988,0.72262 3.61307,0.72262 1.27316,0 2.46031,-0.24087 3.56146,-0.72262 1.13551,-0.48174 2.1162,-1.13553 2.94207,-1.96138 0.86023,-0.86025 1.53123,-1.84094 2.01299,-2.94207 0.48173,-1.13553 0.7226,-2.33988 0.72262,-3.61307"
         style=""
         id="path3032" />
      <path
         d="m 538.5415,201.676 c 1.65168,2e-5 3.21734,0.34413 4.697,1.03231 1.51403,0.65381 2.83882,1.54848 3.97438,2.68399 1.13551,1.13556 2.03017,2.46035 2.68399,3.97438 0.68818,1.51406 1.03228,3.13134 1.03231,4.85184 -3e-5,1.68611 -0.32693,3.28618 -0.98069,4.80022 -0.65382,1.47965 -1.54849,2.78723 -2.684,3.92276 -1.10115,1.13554 -2.40873,2.03021 -3.92276,2.684 -1.51407,0.65379 -3.14855,0.98069 -4.90346,0.98069 -1.72052,0 -3.3378,-0.30969 -4.85183,-0.92907 -1.47965,-0.61939 -2.78724,-1.47964 -3.92277,-2.58077 -1.13554,-1.10112 -2.0302,-2.40871 -2.68399,-3.92276 -0.6538,-1.51404 -0.9807,-3.16573 -0.98069,-4.95507 -1e-5,-1.7205 0.30969,-3.32057 0.92907,-4.80022 0.65379,-1.51403 1.53125,-2.82162 2.63238,-3.92277 1.13553,-1.13551 2.46032,-2.03018 3.97438,-2.68399 1.54845,-0.68818 3.21734,-1.06669 5.00668,-1.13554 m -9.34237,12.54252 c 0,1.27319 0.24087,2.47754 0.72262,3.61307 0.48174,1.10113 1.13553,2.08182 1.96138,2.94207 0.86025,0.82585 1.84094,1.47964 2.94207,1.96138 1.13553,0.48175 2.33988,0.72262 3.61307,0.72262 1.27317,0 2.47752,-0.24087 3.61307,-0.72262 1.13552,-0.48174 2.11621,-1.13553 2.94208,-1.96138 0.86023,-0.86025 1.53123,-1.84094 2.01299,-2.94207 0.48172,-1.13553 0.7226,-2.33988 0.72262,-3.61307 -2e-5,-1.27317 -0.2409,-2.47752 -0.72262,-3.61307 -0.48176,-1.13552 -1.15276,-2.11621 -2.01299,-2.94208 -0.82587,-0.86023 -1.80656,-1.53123 -2.94208,-2.01299 -1.13555,-0.48172 -2.3399,-0.72259 -3.61307,-0.72262 -1.27319,3e-5 -2.47754,0.2409 -3.61307,0.72262 -1.10113,0.48176 -2.08182,1.15276 -2.94207,2.01299 -0.82585,0.82587 -1.47964,1.80656 -1.96138,2.94208 -0.48175,1.13555 -0.72262,2.3399 -0.72262,3.61307"
         style=""
         id="path3034" />
      <path
         d="m 566.07019,201.676 c 1.65167,2e-5 3.21734,0.34413 4.69699,1.03231 1.51403,0.65381 2.83882,1.54848 3.97438,2.68399 1.13551,1.13556 2.03018,2.46035 2.684,3.97438 0.68817,1.51406 1.03228,3.13134 1.0323,4.85184 -2e-5,1.68611 -0.32692,3.28618 -0.98069,4.80022 -0.65382,1.47965 -1.54848,2.78723 -2.68399,3.92276 -1.10115,1.13554 -2.40874,2.03021 -3.92277,2.684 -1.51406,0.65379 -3.14855,0.98069 -4.90345,0.98069 -1.72052,0 -3.3378,-0.30969 -4.85184,-0.92907 -1.47965,-0.61939 -2.78723,-1.47964 -3.92276,-2.58077 -1.13554,-1.10112 -2.03021,-2.40871 -2.684,-3.92276 -0.65379,-1.51404 -0.98069,-3.16573 -0.98069,-4.95507 l 0,-19.30412 c 0,-0.44731 0.15485,-0.82582 0.46454,-1.13554 0.30969,-0.30966 0.6882,-0.46451 1.13554,-0.46454 0.44733,3e-5 0.82584,0.15488 1.13553,0.46454 0.30969,0.30972 0.46454,0.68823 0.46454,1.13554 l 0,11.45859 c 1.13553,-1.23874 2.49473,-2.30546 4.07761,-3.20015 1.58286,-0.92905 3.33778,-1.42799 5.26476,-1.49684 m -9.34237,12.54252 c 0,1.27319 0.24087,2.47754 0.72261,3.61307 0.48174,1.10113 1.13553,2.08182 1.96139,2.94207 0.86024,0.82585 1.84093,1.47964 2.94207,1.96138 1.13552,0.48175 2.33988,0.72262 3.61307,0.72262 1.27316,0 2.47752,-0.24087 3.61307,-0.72262 1.13552,-0.48174 2.11621,-1.13553 2.94207,-1.96138 0.86024,-0.86025 1.53124,-1.84094 2.013,-2.94207 0.48172,-1.13553 0.72259,-2.33988 0.72261,-3.61307 -2e-5,-1.27317 -0.24089,-2.47752 -0.72261,-3.61307 -0.48176,-1.13552 -1.15276,-2.11621 -2.013,-2.94208 -0.82586,-0.86023 -1.80655,-1.53123 -2.94207,-2.01299 -1.13555,-0.48172 -2.33991,-0.72259 -3.61307,-0.72262 -1.23878,3e-5 -2.40873,0.2409 -3.50984,0.72262 -1.10114,0.44735 -2.06462,1.08394 -2.89046,1.90976 -0.82585,0.82587 -1.49685,1.80656 -2.01299,2.94208 -0.51616,1.13555 -0.79144,2.37431 -0.82585,3.7163"
         style=""
         id="path3036" />
      <path
         d="m 592.57626,201.676 c 1.65168,2e-5 3.21734,0.34413 4.697,1.03231 1.51403,0.65381 2.83882,1.54848 3.97437,2.68399 1.13552,1.13556 2.03018,2.46035 2.684,3.97438 0.68818,1.51406 1.03228,3.13134 1.03231,4.85184 -3e-5,1.68611 -0.32693,3.28618 -0.98069,4.80022 -0.65382,1.47965 -1.54849,2.78723 -2.684,3.92276 -1.10115,1.13554 -2.40873,2.03021 -3.92276,2.684 -1.51407,0.65379 -3.14855,0.98069 -4.90346,0.98069 -1.72052,0 -3.3378,-0.30969 -4.85184,-0.92907 -1.47964,-0.61939 -2.78723,-1.47964 -3.92276,-2.58077 -1.13554,-1.10112 -2.0302,-2.40871 -2.68399,-3.92276 -0.6538,-1.51404 -0.9807,-3.16573 -0.98069,-4.95507 -1e-5,-1.7205 0.30969,-3.32057 0.92907,-4.80022 0.65379,-1.51403 1.53125,-2.82162 2.63238,-3.92277 1.13553,-1.13551 2.46032,-2.03018 3.97438,-2.68399 1.54845,-0.68818 3.21734,-1.06669 5.00668,-1.13554 m -9.34237,12.54252 c 0,1.27319 0.24087,2.47754 0.72262,3.61307 0.48174,1.10113 1.13553,2.08182 1.96138,2.94207 0.86025,0.82585 1.84094,1.47964 2.94207,1.96138 1.13553,0.48175 2.33988,0.72262 3.61307,0.72262 1.27317,0 2.47752,-0.24087 3.61307,-0.72262 1.13552,-0.48174 2.11621,-1.13553 2.94208,-1.96138 0.86023,-0.86025 1.53123,-1.84094 2.01299,-2.94207 0.48172,-1.13553 0.72259,-2.33988 0.72262,-3.61307 -3e-5,-1.27317 -0.2409,-2.47752 -0.72262,-3.61307 -0.48176,-1.13552 -1.15276,-2.11621 -2.01299,-2.94208 -0.82587,-0.86023 -1.80656,-1.53123 -2.94208,-2.01299 -1.13555,-0.48172 -2.3399,-0.72259 -3.61307,-0.72262 -1.27319,3e-5 -2.47754,0.2409 -3.61307,0.72262 -1.10113,0.48176 -2.08182,1.15276 -2.94207,2.01299 -0.82585,0.82587 -1.47964,1.80656 -1.96138,2.94208 -0.48175,1.13555 -0.72262,2.3399 -0.72262,3.61307"
         style=""
         id="path3038" />
      <path
         d="m 607.51082,194.9144 c -10e-6,-0.44731 0.15484,-0.82582 0.46453,-1.13554 0.30969,-0.30966 0.68821,-0.46451 1.13554,-0.46454 0.44733,3e-5 0.82584,0.15488 1.13554,0.46454 0.30968,0.30972 0.46453,0.68823 0.46453,1.13554 l 0,20.02673 c 0,0.44735 -0.15485,0.82586 -0.46453,1.13554 -0.3097,0.3097 -0.68821,0.46455 -1.13554,0.46454 -0.44733,1e-5 -0.82585,-0.15484 -1.13554,-0.46454 -0.30969,-0.30968 -0.46454,-0.68819 -0.46453,-1.13554 l 0,-20.02673 m -0.51616,29.62718 c 0,-0.58497 0.20646,-1.08392 0.61939,-1.49684 0.41292,-0.41292 0.91186,-0.61938 1.49684,-0.61939 0.58497,1e-5 1.08392,0.20647 1.49684,0.61939 0.41292,0.41292 0.61938,0.91187 0.61939,1.49684 -10e-6,0.58497 -0.20647,1.08392 -0.61939,1.49684 -0.41292,0.41293 -0.91187,0.61939 -1.49684,0.61939 -0.58498,0 -1.08392,-0.20646 -1.49684,-0.61939 -0.41293,-0.41292 -0.61939,-0.91187 -0.61939,-1.49684"
         style=""
         id="path3040" />
    </g>
  </g>
</svg>
